<?xml version="1.0" encoding="utf-8"?>
<!-- Generator: Adobe Illustrator 19.0.0, SVG Export Plug-In . SVG Version: 6.00 Build 0)  -->
<svg xmlns="http://www.w3.org/2000/svg" xmlns:xlink="http://www.w3.org/1999/xlink" version="1.1" id="Layer_1" x="0px" y="0px" viewBox="0 2 98 98" style="enable-background:new 0 2 98 98;" xml:space="preserve" width="512" height="512">
<style type="text/css">
	.st0{fill:url(#SVGID_1_);}
</style>
<linearGradient id="SVGID_1_" gradientUnits="userSpaceOnUse" x1="49" y1="93.65" x2="49" y2="12.35" gradientTransform="matrix(1 0 0 -1 0 104)">
	<stop offset="0" style="stop-color:#00EFD1"/>
	<stop offset="1" style="stop-color:#00ACEA"/>
</linearGradient>
<path class="st0" d="M91.8,29.2l-9.9-9.9l3.8-3.8c1.2-1.2,1.2-3.1,0-4.2c-1.2-1.2-3.1-1.2-4.2,0L39,53.7c-3.5-2.6-7.9-4.2-12.6-4.2  C14.8,49.5,5.3,59,5.3,70.6s9.5,21.1,21.1,21.1s21.1-9.5,21.1-21.1c0-4.7-1.6-9.1-4.2-12.6l19.1-19.1l9.9,9.8  c0.6,0.6,1.3,0.9,2.1,0.9c0.8,0,1.5-0.3,2.1-0.9l15.3-15.2c0.6-0.6,0.9-1.3,0.9-2.1S92.4,29.8,91.8,29.2z M26.4,85.7  c-8.3,0-15.1-6.8-15.1-15.1s6.8-15.1,15.1-15.1s15.1,6.8,15.1,15.1S34.7,85.7,26.4,85.7z M74.4,42.2l-7.8-7.7l11-11l7.8,7.8  L74.4,42.2z"/>
</svg>
